<svg width="64" height="80" viewBox="0 0 64 80" fill="none" xmlns="http://www.w3.org/2000/svg">
<path d="M14 80C10.1333 80 6.83333 78.6333 4.1 75.9C1.36667 73.1667 0 69.8667 0 66V14C0 10.1333 1.36667 6.83333 4.1 4.1C6.83333 1.36667 10.1333 0 14 0H56C58.2 0 60.0833 0.783333 61.65 2.35C63.2167 3.91667 64 5.8 64 8V58.1C64 58.6333 63.7833 59.1167 63.35 59.55C62.9167 59.9833 62.1333 60.4667 61 61C60.0667 61.4667 59.3333 62.1333 58.8 63C58.2667 63.8667 58 64.8667 58 66C58 67.1333 58.2667 68.15 58.8 69.05C59.3333 69.95 60.0667 70.6 61 71C61.9333 71.4 62.6667 71.95 63.2 72.65C63.7333 73.35 64 74.1 64 74.9V75.9C64 77.0333 63.6167 78 62.85 78.8C62.0833 79.6 61.1333 80 60 80H14ZM20 52C21.1333 52 22.0833 51.6167 22.85 50.85C23.6167 50.0833 24 49.1333 24 48V12C24 10.8667 23.6167 9.91667 22.85 9.15C22.0833 8.38333 21.1333 8 20 8C18.8667 8 17.9167 8.38333 17.15 9.15C16.3833 9.91667 16 10.8667 16 12V48C16 49.1333 16.3833 50.0833 17.15 50.85C17.9167 51.6167 18.8667 52 20 52ZM14 72H51.3C50.9 71.0667 50.5833 70.1167 50.35 69.15C50.1167 68.1833 50 67.1333 50 66C50 64.9333 50.1 63.9 50.3 62.9C50.5 61.9 50.8333 60.9333 51.3 60H14C12.2667 60 10.8333 60.5833 9.7 61.75C8.56667 62.9167 8 64.3333 8 66C8 67.7333 8.56667 69.1667 9.7 70.3C10.8333 71.4333 12.2667 72 14 72Z" fill="#FF4D00"/>
</svg>
