<?xml version="1.0" encoding="UTF-8"?>
<svg xmlns="http://www.w3.org/2000/svg" xmlns:xlink="http://www.w3.org/1999/xlink" width="160px" height="160px" viewBox="0 0 160 160" version="1.1">
<g id="surface1">
<path style=" stroke:none;fill-rule:nonzero;fill:rgb(0%,0%,0%);fill-opacity:1;" d="M 83.652344 15.015625 C 81.414062 15.617188 79.980469 16.613281 77.933594 18.972656 C 74.402344 23.050781 70.898438 32.21875 68.449219 43.726562 C 68.121094 45.253906 67.792969 46.875 67.675781 47.316406 C 67.53125 47.988281 66.734375 51.785156 66.734375 51.855469 C 66.734375 51.875 67.769531 52.363281 69.039062 52.941406 C 73.4375 54.980469 77.675781 56.089844 82.898438 56.601562 C 88.261719 57.109375 96.050781 55.953125 100.710938 53.914062 C 102.027344 53.335938 102.027344 53.335938 101.910156 52.480469 C 101.863281 51.992188 101.628906 49.722656 101.414062 47.429688 C 100.945312 42.382812 99.273438 32.820312 98.308594 29.484375 C 95.839844 21.035156 92.449219 16.519531 87.460938 14.921875 C 86.472656 14.597656 85.0625 14.644531 83.652344 15.015625 Z M 80.003906 34.601562 C 81.792969 35.992188 81.769531 38.910156 79.933594 39.976562 C 78.898438 40.578125 77.769531 40.667969 76.851562 40.207031 C 74.496094 39.027344 74.332031 35.992188 76.519531 34.558594 C 77.460938 33.953125 79.179688 33.976562 80.003906 34.601562 Z M 93.34375 34.464844 C 95.4375 35.53125 95.484375 38.726562 93.4375 40.042969 C 92.640625 40.554688 90.945312 40.554688 90.144531 40.042969 C 88.097656 38.726562 88.167969 35.460938 90.261719 34.417969 C 91.0625 34.023438 92.496094 34.046875 93.34375 34.464844 Z M 93.34375 34.464844 "/>
<path style=" stroke:none;fill-rule:nonzero;fill:rgb(0%,0%,0%);fill-opacity:1;" d="M 66.027344 55.605469 C 65.484375 57.898438 64.332031 63.269531 63.910156 65.609375 C 63.4375 68.199219 63.460938 68.15625 62.734375 71.257812 C 62.449219 72.367188 62.261719 73.316406 62.308594 73.363281 C 62.355469 73.386719 63.179688 73.851562 64.144531 74.359375 C 66.542969 75.65625 70.332031 77.070312 73.179688 77.742188 C 76.710938 78.597656 77.296875 78.691406 77.414062 78.320312 C 79.179688 72.484375 80.542969 69.242188 81.792969 67.855469 C 82.425781 67.136719 82.710938 66.996094 83.460938 66.996094 C 84.261719 66.996094 84.449219 67.113281 84.96875 67.875 C 85.910156 69.289062 86.898438 72.808594 87.203125 75.933594 L 87.507812 78.734375 L 89.53125 78.414062 C 93.933594 77.71875 97.652344 76.652344 101.203125 75.007812 L 103.4375 73.964844 L 103.320312 72.277344 C 103.25 71.351562 103.039062 67.714844 102.851562 64.21875 C 102.664062 60.722656 102.425781 57.410156 102.355469 56.902344 L 102.238281 55.929688 L 100.472656 56.625 C 98.003906 57.550781 94.828125 58.335938 91.675781 58.800781 C 87.746094 59.355469 81.296875 59.148438 77.484375 58.335938 C 74.378906 57.6875 70.640625 56.484375 68.027344 55.304688 L 66.285156 54.539062 Z M 66.027344 55.605469 "/>
<path style=" stroke:none;fill-rule:nonzero;fill:rgb(0%,0%,0%);fill-opacity:1;" d="M 61.34375 77.949219 C 60.828125 79.941406 59.675781 84.988281 59.675781 85.3125 C 59.675781 85.519531 65.015625 87.605469 67.320312 88.277344 C 70.261719 89.15625 74.285156 89.898438 74.378906 89.617188 C 74.617188 88.972656 76.617188 81.261719 76.617188 81.003906 C 76.617188 80.980469 76.167969 80.890625 75.628906 80.796875 C 73.980469 80.542969 70.96875 79.777344 69.203125 79.199219 C 67.628906 78.667969 63.34375 76.835938 62.851562 76.492188 C 62.003906 75.886719 61.863281 76.050781 61.34375 77.949219 Z M 61.34375 77.949219 "/>
<path style=" stroke:none;fill-rule:nonzero;fill:rgb(0%,0%,0%);fill-opacity:1;" d="M 101.554688 77.601562 C 98.664062 78.945312 92.570312 80.613281 89.015625 81.027344 L 87.652344 81.167969 L 87.769531 82.835938 C 87.839844 83.738281 87.957031 85.519531 88.027344 86.792969 C 88.097656 88.066406 88.214844 89.457031 88.308594 89.851562 L 88.425781 90.613281 L 89.769531 90.476562 C 93.886719 90.082031 95.605469 89.851562 98.261719 89.316406 C 99.886719 88.992188 101.863281 88.507812 102.664062 88.253906 L 104.121094 87.8125 L 104.027344 86.726562 C 103.957031 86.121094 103.863281 83.921875 103.792969 81.816406 C 103.675781 77.765625 103.554688 76.929688 103.109375 76.976562 C 102.96875 76.976562 102.261719 77.253906 101.554688 77.601562 Z M 101.554688 77.601562 "/>
<path style=" stroke:none;fill-rule:nonzero;fill:rgb(0%,0%,0%);fill-opacity:1;" d="M 58.828125 88.484375 C 58.757812 88.832031 58.519531 89.6875 58.332031 90.382812 C 58.144531 91.078125 57.675781 92.792969 57.320312 94.203125 C 56.945312 95.59375 56.378906 97.652344 56.050781 98.789062 L 55.460938 100.804688 L 57.367188 101.753906 C 60.617188 103.351562 64.144531 104.578125 68.332031 105.527344 L 69.816406 105.851562 L 70.074219 105.25 C 70.332031 104.601562 71.484375 100.59375 72.617188 96.402344 C 72.96875 95.058594 73.390625 93.625 73.554688 93.207031 C 73.722656 92.792969 73.792969 92.398438 73.722656 92.328125 C 73.675781 92.257812 72.402344 91.980469 70.921875 91.679688 C 67.699219 91.03125 64.285156 90.011719 61.226562 88.785156 L 58.96875 87.882812 Z M 58.828125 88.484375 "/>
<path style=" stroke:none;fill-rule:nonzero;fill:rgb(0%,0%,0%);fill-opacity:1;" d="M 102.261719 90.871094 C 99.628906 91.65625 95.226562 92.445312 91.699219 92.746094 L 88.308594 93.023438 L 88.472656 96.148438 C 88.542969 97.863281 88.617188 101.011719 88.617188 103.164062 L 88.617188 107.054688 L 89.414062 107.054688 C 92.167969 107.054688 97.980469 105.988281 102.214844 104.691406 L 104.640625 103.953125 L 104.496094 99.550781 C 104.308594 93.441406 104.121094 90.382812 103.957031 90.40625 C 103.863281 90.40625 103.109375 90.613281 102.261719 90.871094 Z M 102.261719 90.871094 "/>
<path style=" stroke:none;fill-rule:nonzero;fill:rgb(0%,0%,0%);fill-opacity:1;" d="M 53.933594 105.132812 C 53.273438 107.214844 52.261719 109.902344 51.226562 112.335938 C 50.828125 113.285156 50.542969 114.117188 50.617188 114.234375 C 50.851562 114.601562 54.921875 117.21875 56.921875 118.285156 C 59.273438 119.535156 63.910156 121.433594 64.167969 121.273438 C 64.261719 121.226562 64.472656 120.785156 64.640625 120.300781 C 64.78125 119.835938 65.179688 118.910156 65.484375 118.238281 C 66.285156 116.457031 69.085938 108.722656 69.085938 108.234375 C 69.085938 108.144531 68.308594 107.933594 67.390625 107.796875 C 64.59375 107.332031 58.945312 105.410156 55.863281 103.90625 C 55.25 103.605469 54.6875 103.351562 54.640625 103.351562 C 54.570312 103.351562 54.261719 104.160156 53.933594 105.132812 Z M 53.933594 105.132812 "/>
<path style=" stroke:none;fill-rule:nonzero;fill:rgb(0%,0%,0%);fill-opacity:1;" d="M 104.097656 106.730469 C 103.816406 107.007812 98.945312 108.257812 96.496094 108.675781 C 95.085938 108.929688 92.804688 109.207031 91.4375 109.300781 L 88.96875 109.484375 L 88.898438 114.695312 C 88.851562 117.566406 88.898438 120.554688 88.96875 121.363281 L 89.132812 122.824219 L 90.214844 122.660156 C 94.191406 122.128906 99.15625 120.714844 103.296875 118.980469 L 105.367188 118.097656 L 105.226562 116.339844 C 105.132812 115.367188 104.96875 112.796875 104.851562 110.644531 C 104.734375 108.46875 104.617188 106.683594 104.617188 106.636719 C 104.617188 106.546875 104.214844 106.589844 104.097656 106.730469 Z M 104.097656 106.730469 "/>
<path style=" stroke:none;fill-rule:nonzero;fill:rgb(0%,0%,0%);fill-opacity:1;" d="M 47.554688 119.929688 C 46.570312 121.804688 45.484375 123.75 45.15625 124.28125 L 44.542969 125.207031 L 45.203125 126.457031 C 46.378906 128.65625 49.179688 132.132812 51.675781 134.445312 C 54.449219 137.039062 54.074219 137.0625 56.214844 134.378906 C 56.875 133.542969 57.484375 132.824219 57.582031 132.757812 C 58.214844 132.269531 63.179688 123.820312 62.945312 123.632812 C 62.898438 123.609375 61.746094 123.125 60.378906 122.589844 C 56.734375 121.109375 53.484375 119.351562 50.804688 117.429688 C 50.121094 116.941406 49.53125 116.546875 49.460938 116.546875 C 49.414062 116.546875 48.542969 118.078125 47.554688 119.929688 Z M 47.554688 119.929688 "/>
<path style=" stroke:none;fill-rule:nonzero;fill:rgb(0%,0%,0%);fill-opacity:1;" d="M 102.734375 121.851562 C 99.015625 123.355469 95.390625 124.304688 89.980469 125.230469 C 89.25 125.347656 89.085938 125.460938 89.085938 125.878906 C 89.085938 127.058594 89.605469 131.621094 89.910156 133.3125 C 90.097656 134.308594 90.261719 135.164062 90.261719 135.210938 C 90.261719 135.628906 93.628906 133.707031 96.851562 131.414062 C 99.367188 129.652344 103.957031 125.742188 105.085938 124.421875 C 106.003906 123.332031 106.050781 123.238281 105.886719 122.105469 C 105.792969 121.457031 105.675781 120.902344 105.582031 120.855469 C 105.507812 120.808594 104.214844 121.25 102.734375 121.851562 Z M 102.734375 121.851562 "/>
<path style=" stroke:none;fill-rule:nonzero;fill:rgb(0%,0%,0%);fill-opacity:1;" d="M 104.425781 128.378906 C 101.273438 131.367188 97.863281 133.914062 93.886719 136.253906 C 92.285156 137.203125 90.96875 138.058594 90.96875 138.199219 C 90.96875 138.3125 91.320312 139.238281 91.769531 140.210938 C 93.179688 143.382812 94.898438 145.167969 98.027344 146.742188 C 100.050781 147.738281 100.828125 148.015625 103.296875 148.523438 C 104.921875 148.871094 104.921875 148.871094 106.167969 146.210938 C 108.332031 141.671875 109.957031 135.464844 110.402344 130.234375 L 110.570312 128.402344 L 109.652344 127.988281 C 109.132812 127.777344 108.355469 127.199219 107.910156 126.734375 L 107.0625 125.878906 Z M 104.425781 128.378906 "/>
<path style=" stroke:none;fill-rule:nonzero;fill:rgb(0%,0%,0%);fill-opacity:1;" d="M 41.863281 129.214844 C 40.121094 131.644531 37.226562 135.140625 34.59375 138.082031 C 32.355469 140.582031 26.496094 146.347656 24.59375 147.945312 C 23.109375 149.195312 23.15625 149.265625 25.460938 149.128906 C 26.617188 149.058594 28.191406 148.871094 28.96875 148.757812 C 29.746094 148.617188 30.921875 148.410156 31.554688 148.292969 C 32.214844 148.175781 33.367188 147.921875 34.144531 147.691406 C 34.921875 147.484375 35.886719 147.207031 36.261719 147.113281 C 41.109375 145.886719 47.863281 142.433594 51.273438 139.425781 L 52.425781 138.429688 L 50.804688 137.085938 C 48.78125 135.375 46.121094 132.316406 44.355469 129.675781 L 42.992188 127.664062 Z M 41.863281 129.214844 "/>
<path style=" stroke:none;fill-rule:nonzero;fill:rgb(0%,0%,0%);fill-opacity:1;" d="M 112.851562 130.070312 C 112.851562 134.191406 110.945312 141.808594 108.640625 146.789062 C 108.121094 147.96875 107.675781 148.988281 107.675781 149.058594 C 107.675781 149.242188 115.816406 149.082031 117.203125 148.871094 C 124.617188 147.738281 130.097656 144.542969 131.179688 140.722656 C 131.53125 139.472656 131.507812 137.203125 131.109375 135.953125 C 130.425781 133.730469 128.144531 131.621094 125.4375 130.742188 C 122.992188 129.933594 121.933594 129.769531 118.121094 129.515625 C 116.050781 129.398438 114.027344 129.214844 113.628906 129.144531 L 112.851562 129.027344 Z M 112.851562 130.070312 "/>
</g>
</svg>
